<mxfile host="Electron" agent="Mozilla/5.0 (X11; Linux x86_64) AppleWebKit/537.36 (KHTML, like Gecko) draw.io/28.0.6 Chrome/138.0.7204.100 Electron/37.2.3 Safari/537.36" version="28.0.6">
  <diagram name="Page-1" id="-pDo3xDFM3ON8i2X-qaF">
    <mxGraphModel dx="2431" dy="1029" grid="1" gridSize="10" guides="1" tooltips="1" connect="1" arrows="1" fold="1" page="1" pageScale="1" pageWidth="1169" pageHeight="827" math="0" shadow="0">
      <root>
        <mxCell id="0" />
        <mxCell id="1" parent="0" />
        <mxCell id="EWlrvMmlR7x_ZhXIqtUP-96" value="" style="rounded=0;whiteSpace=wrap;html=1;" vertex="1" parent="1">
          <mxGeometry width="750" height="790" as="geometry" />
        </mxCell>
        <mxCell id="3J-PmPcp0d9uHci5Mjbd-21" value="" style="rounded=1;whiteSpace=wrap;html=1;strokeWidth=3;fillColor=#f5f5f5;fontColor=#333333;strokeColor=#666666;" parent="1" vertex="1">
          <mxGeometry x="190.66" y="350" width="120" height="190" as="geometry" />
        </mxCell>
        <mxCell id="c8_pwvJgbb843xL5BC3s-1" value="" style="rounded=0;whiteSpace=wrap;html=1;strokeWidth=3;" parent="1" vertex="1">
          <mxGeometry x="340.65999999999997" y="40" width="40" height="70" as="geometry" />
        </mxCell>
        <mxCell id="c8_pwvJgbb843xL5BC3s-7" value="" style="triangle;whiteSpace=wrap;html=1;rotation=-90;strokeWidth=2;" parent="1" vertex="1">
          <mxGeometry x="351.90999999999997" y="90" width="17.5" height="22.5" as="geometry" />
        </mxCell>
        <mxCell id="c8_pwvJgbb843xL5BC3s-10" value="" style="rounded=0;whiteSpace=wrap;html=1;strokeWidth=3;" parent="1" vertex="1">
          <mxGeometry x="340.65999999999997" y="140" width="40" height="70" as="geometry" />
        </mxCell>
        <mxCell id="c8_pwvJgbb843xL5BC3s-11" value="" style="triangle;whiteSpace=wrap;html=1;rotation=-90;strokeWidth=2;" parent="1" vertex="1">
          <mxGeometry x="351.90999999999997" y="190" width="17.5" height="22.5" as="geometry" />
        </mxCell>
        <mxCell id="c8_pwvJgbb843xL5BC3s-20" value="" style="rounded=0;whiteSpace=wrap;html=1;strokeWidth=3;" parent="1" vertex="1">
          <mxGeometry x="340.65999999999997" y="240" width="40" height="70" as="geometry" />
        </mxCell>
        <mxCell id="c8_pwvJgbb843xL5BC3s-21" value="" style="triangle;whiteSpace=wrap;html=1;rotation=-90;strokeWidth=2;" parent="1" vertex="1">
          <mxGeometry x="351.90999999999997" y="290" width="17.5" height="22.5" as="geometry" />
        </mxCell>
        <mxCell id="c8_pwvJgbb843xL5BC3s-29" value="" style="rounded=0;whiteSpace=wrap;html=1;strokeWidth=3;" parent="1" vertex="1">
          <mxGeometry x="340.65999999999997" y="430" width="40" height="70" as="geometry" />
        </mxCell>
        <mxCell id="c8_pwvJgbb843xL5BC3s-30" value="" style="triangle;whiteSpace=wrap;html=1;rotation=-90;strokeWidth=2;" parent="1" vertex="1">
          <mxGeometry x="351.90999999999997" y="480" width="17.5" height="22.5" as="geometry" />
        </mxCell>
        <mxCell id="c8_pwvJgbb843xL5BC3s-31" value="" style="rounded=0;whiteSpace=wrap;html=1;strokeWidth=3;" parent="1" vertex="1">
          <mxGeometry x="340.65999999999997" y="530" width="40" height="70" as="geometry" />
        </mxCell>
        <mxCell id="c8_pwvJgbb843xL5BC3s-32" value="" style="triangle;whiteSpace=wrap;html=1;rotation=-90;strokeWidth=2;" parent="1" vertex="1">
          <mxGeometry x="351.90999999999997" y="580" width="17.5" height="22.5" as="geometry" />
        </mxCell>
        <mxCell id="c8_pwvJgbb843xL5BC3s-33" value="" style="rounded=0;whiteSpace=wrap;html=1;strokeWidth=3;" parent="1" vertex="1">
          <mxGeometry x="340.65999999999997" y="630" width="40" height="70" as="geometry" />
        </mxCell>
        <mxCell id="c8_pwvJgbb843xL5BC3s-34" value="" style="triangle;whiteSpace=wrap;html=1;rotation=-90;strokeWidth=2;" parent="1" vertex="1">
          <mxGeometry x="351.90999999999997" y="680" width="17.5" height="22.5" as="geometry" />
        </mxCell>
        <mxCell id="c8_pwvJgbb843xL5BC3s-35" value="" style="shape=trapezoid;perimeter=trapezoidPerimeter;whiteSpace=wrap;html=1;fixedSize=1;rotation=90;strokeWidth=3;" parent="1" vertex="1">
          <mxGeometry x="410.03999999999996" y="330.63" width="139.25" height="40" as="geometry" />
        </mxCell>
        <mxCell id="c8_pwvJgbb843xL5BC3s-37" value="" style="endArrow=none;html=1;rounded=0;entryX=0.25;entryY=1;entryDx=0;entryDy=0;exitX=1;exitY=0.5;exitDx=0;exitDy=0;edgeStyle=orthogonalEdgeStyle;strokeWidth=4;endFill=0;" parent="1" source="c8_pwvJgbb843xL5BC3s-20" target="c8_pwvJgbb843xL5BC3s-35" edge="1">
          <mxGeometry width="50" height="50" relative="1" as="geometry">
            <mxPoint x="270.65999999999997" y="485" as="sourcePoint" />
            <mxPoint x="320.65999999999997" y="435" as="targetPoint" />
          </mxGeometry>
        </mxCell>
        <mxCell id="c8_pwvJgbb843xL5BC3s-38" value="" style="endArrow=none;html=1;rounded=0;entryX=0.75;entryY=1;entryDx=0;entryDy=0;exitX=1;exitY=0.5;exitDx=0;exitDy=0;edgeStyle=orthogonalEdgeStyle;strokeWidth=4;endFill=0;" parent="1" source="c8_pwvJgbb843xL5BC3s-29" target="c8_pwvJgbb843xL5BC3s-35" edge="1">
          <mxGeometry width="50" height="50" relative="1" as="geometry">
            <mxPoint x="390.65999999999997" y="300" as="sourcePoint" />
            <mxPoint x="469.65999999999997" y="336" as="targetPoint" />
          </mxGeometry>
        </mxCell>
        <mxCell id="c8_pwvJgbb843xL5BC3s-39" value="" style="endArrow=none;html=1;rounded=0;entryX=1;entryY=0.5;entryDx=0;entryDy=0;strokeWidth=4;exitX=0;exitY=0.5;exitDx=0;exitDy=0;" parent="1" source="3J-PmPcp0d9uHci5Mjbd-14" target="c8_pwvJgbb843xL5BC3s-1" edge="1">
          <mxGeometry width="50" height="50" relative="1" as="geometry">
            <mxPoint x="660.66" y="75" as="sourcePoint" />
            <mxPoint x="320.65999999999997" y="220" as="targetPoint" />
          </mxGeometry>
        </mxCell>
        <mxCell id="c8_pwvJgbb843xL5BC3s-40" value="" style="endArrow=none;html=1;rounded=0;entryX=1;entryY=0.5;entryDx=0;entryDy=0;strokeWidth=4;startArrow=classic;startFill=1;" parent="1" target="c8_pwvJgbb843xL5BC3s-10" edge="1">
          <mxGeometry width="50" height="50" relative="1" as="geometry">
            <mxPoint x="660.66" y="175" as="sourcePoint" />
            <mxPoint x="410.65999999999997" y="170" as="targetPoint" />
          </mxGeometry>
        </mxCell>
        <mxCell id="c8_pwvJgbb843xL5BC3s-41" value="" style="endArrow=none;html=1;rounded=0;entryX=0.5;entryY=0;entryDx=0;entryDy=0;strokeWidth=4;startArrow=classic;startFill=1;" parent="1" target="c8_pwvJgbb843xL5BC3s-35" edge="1">
          <mxGeometry width="50" height="50" relative="1" as="geometry">
            <mxPoint x="660.66" y="350" as="sourcePoint" />
            <mxPoint x="390.65999999999997" y="180" as="targetPoint" />
          </mxGeometry>
        </mxCell>
        <mxCell id="c8_pwvJgbb843xL5BC3s-42" value="" style="endArrow=none;html=1;rounded=0;entryX=1;entryY=0.5;entryDx=0;entryDy=0;strokeWidth=4;startArrow=classic;startFill=1;" parent="1" target="c8_pwvJgbb843xL5BC3s-31" edge="1">
          <mxGeometry width="50" height="50" relative="1" as="geometry">
            <mxPoint x="660.66" y="565" as="sourcePoint" />
            <mxPoint x="509.65999999999997" y="395" as="targetPoint" />
          </mxGeometry>
        </mxCell>
        <mxCell id="c8_pwvJgbb843xL5BC3s-43" value="" style="endArrow=none;html=1;rounded=0;entryX=1;entryY=0.5;entryDx=0;entryDy=0;startArrow=classic;startFill=1;" parent="1" target="c8_pwvJgbb843xL5BC3s-33" edge="1">
          <mxGeometry width="50" height="50" relative="1" as="geometry">
            <mxPoint x="660.66" y="665" as="sourcePoint" />
            <mxPoint x="519.66" y="385" as="targetPoint" />
          </mxGeometry>
        </mxCell>
        <mxCell id="c8_pwvJgbb843xL5BC3s-44" value="" style="endArrow=none;html=1;rounded=0;exitX=0;exitY=0.5;exitDx=0;exitDy=0;strokeWidth=4;" parent="1" source="3J-PmPcp0d9uHci5Mjbd-11" edge="1">
          <mxGeometry width="50" height="50" relative="1" as="geometry">
            <mxPoint x="320.65999999999997" y="74.41" as="sourcePoint" />
            <mxPoint x="100.66" y="74" as="targetPoint" />
          </mxGeometry>
        </mxCell>
        <mxCell id="c8_pwvJgbb843xL5BC3s-45" value="" style="endArrow=none;html=1;rounded=0;exitX=0;exitY=0.5;exitDx=0;exitDy=0;strokeWidth=4;startArrow=none;startFill=0;" parent="1" source="c8_pwvJgbb843xL5BC3s-10" edge="1">
          <mxGeometry width="50" height="50" relative="1" as="geometry">
            <mxPoint x="350.65999999999997" y="65" as="sourcePoint" />
            <mxPoint x="100.66" y="175" as="targetPoint" />
          </mxGeometry>
        </mxCell>
        <mxCell id="c8_pwvJgbb843xL5BC3s-46" value="" style="endArrow=none;html=1;rounded=0;exitX=0;exitY=0.5;exitDx=0;exitDy=0;strokeWidth=4;" parent="1" source="3J-PmPcp0d9uHci5Mjbd-8" edge="1">
          <mxGeometry width="50" height="50" relative="1" as="geometry">
            <mxPoint x="350.65999999999997" y="165" as="sourcePoint" />
            <mxPoint x="100.66" y="275" as="targetPoint" />
          </mxGeometry>
        </mxCell>
        <mxCell id="c8_pwvJgbb843xL5BC3s-47" value="" style="endArrow=none;html=1;rounded=0;exitX=0.875;exitY=0.5;exitDx=0;exitDy=0;exitPerimeter=0;entryX=0;entryY=0.5;entryDx=0;entryDy=0;strokeWidth=4;endFill=0;" parent="1" source="c8_pwvJgbb843xL5BC3s-50" target="c8_pwvJgbb843xL5BC3s-29" edge="1">
          <mxGeometry width="50" height="50" relative="1" as="geometry">
            <mxPoint x="616.66" y="528" as="sourcePoint" />
            <mxPoint x="500.65999999999997" y="525" as="targetPoint" />
          </mxGeometry>
        </mxCell>
        <mxCell id="c8_pwvJgbb843xL5BC3s-48" value="" style="endArrow=none;html=1;rounded=0;exitX=0;exitY=0.5;exitDx=0;exitDy=0;strokeWidth=4;entryX=1;entryY=0.5;entryDx=0;entryDy=0;startArrow=none;startFill=0;" parent="1" source="c8_pwvJgbb843xL5BC3s-31" target="R-Bt77Yq40JcBocoS7dt-44" edge="1">
          <mxGeometry width="50" height="50" relative="1" as="geometry">
            <mxPoint x="423.15999999999997" y="564.71" as="sourcePoint" />
            <mxPoint x="183.16" y="564.71" as="targetPoint" />
          </mxGeometry>
        </mxCell>
        <mxCell id="c8_pwvJgbb843xL5BC3s-49" value="" style="endArrow=none;html=1;rounded=0;exitX=0;exitY=0.5;exitDx=0;exitDy=0;startArrow=none;startFill=0;" parent="1" source="c8_pwvJgbb843xL5BC3s-33" edge="1">
          <mxGeometry width="50" height="50" relative="1" as="geometry">
            <mxPoint x="350.65999999999997" y="555" as="sourcePoint" />
            <mxPoint x="100.66" y="665" as="targetPoint" />
          </mxGeometry>
        </mxCell>
        <mxCell id="c8_pwvJgbb843xL5BC3s-50" value="&lt;font style=&quot;font-size: 11px;&quot;&gt;Comb READ&lt;/font&gt;" style="ellipse;shape=cloud;whiteSpace=wrap;html=1;align=center;strokeWidth=2;" parent="1" vertex="1">
          <mxGeometry x="200.66" y="435" width="100" height="60" as="geometry" />
        </mxCell>
        <mxCell id="c8_pwvJgbb843xL5BC3s-51" value="" style="endArrow=none;html=1;rounded=0;entryX=0;entryY=0.5;entryDx=0;entryDy=0;strokeWidth=4;" parent="1" target="R-Bt77Yq40JcBocoS7dt-44" edge="1">
          <mxGeometry width="50" height="50" relative="1" as="geometry">
            <mxPoint x="100.66" y="565" as="sourcePoint" />
            <mxPoint x="150.66" y="564.71" as="targetPoint" />
          </mxGeometry>
        </mxCell>
        <mxCell id="3J-PmPcp0d9uHci5Mjbd-2" value="" style="ellipse;whiteSpace=wrap;html=1;fillColor=#000000;" parent="1" vertex="1">
          <mxGeometry x="160.66" y="460" width="10" height="10" as="geometry" />
        </mxCell>
        <mxCell id="3J-PmPcp0d9uHci5Mjbd-3" value="" style="endArrow=none;html=1;rounded=0;exitX=1;exitY=0.5;exitDx=0;exitDy=0;entryX=0.095;entryY=0.507;entryDx=0;entryDy=0;entryPerimeter=0;strokeWidth=4;endFill=0;" parent="1" source="3J-PmPcp0d9uHci5Mjbd-2" target="c8_pwvJgbb843xL5BC3s-50" edge="1">
          <mxGeometry width="50" height="50" relative="1" as="geometry">
            <mxPoint x="110.66" y="470" as="sourcePoint" />
            <mxPoint x="210.66" y="460" as="targetPoint" />
          </mxGeometry>
        </mxCell>
        <mxCell id="3J-PmPcp0d9uHci5Mjbd-4" value="" style="endArrow=none;html=1;rounded=0;exitX=0.5;exitY=0;exitDx=0;exitDy=0;entryX=0;entryY=0.75;entryDx=0;entryDy=0;edgeStyle=orthogonalEdgeStyle;strokeWidth=4;endFill=0;" parent="1" source="3J-PmPcp0d9uHci5Mjbd-2" target="3J-PmPcp0d9uHci5Mjbd-6" edge="1">
          <mxGeometry width="50" height="50" relative="1" as="geometry">
            <mxPoint x="150.66" y="439" as="sourcePoint" />
            <mxPoint x="230.65" y="411" as="targetPoint" />
          </mxGeometry>
        </mxCell>
        <mxCell id="3J-PmPcp0d9uHci5Mjbd-6" value="Write&lt;div&gt;&lt;br&gt;&lt;/div&gt;&lt;div&gt;&lt;br&gt;&lt;/div&gt;" style="rounded=0;whiteSpace=wrap;html=1;strokeWidth=2;" parent="1" vertex="1">
          <mxGeometry x="220.66" y="365.5" width="60" height="57" as="geometry" />
        </mxCell>
        <mxCell id="3J-PmPcp0d9uHci5Mjbd-7" value="" style="triangle;whiteSpace=wrap;html=1;rotation=-90;strokeWidth=2;" parent="1" vertex="1">
          <mxGeometry x="241.91" y="402.5" width="17.5" height="22.5" as="geometry" />
        </mxCell>
        <mxCell id="3J-PmPcp0d9uHci5Mjbd-9" value="" style="endArrow=none;html=1;rounded=0;exitX=0;exitY=0.5;exitDx=0;exitDy=0;strokeWidth=4;startArrow=none;startFill=0;" parent="1" source="c8_pwvJgbb843xL5BC3s-20" target="3J-PmPcp0d9uHci5Mjbd-8" edge="1">
          <mxGeometry width="50" height="50" relative="1" as="geometry">
            <mxPoint x="340.65999999999997" y="275" as="sourcePoint" />
            <mxPoint x="100.66" y="275" as="targetPoint" />
          </mxGeometry>
        </mxCell>
        <mxCell id="3J-PmPcp0d9uHci5Mjbd-8" value="" style="ellipse;whiteSpace=wrap;html=1;fillColor=#000000;" parent="1" vertex="1">
          <mxGeometry x="160.66" y="270" width="10" height="10" as="geometry" />
        </mxCell>
        <mxCell id="3J-PmPcp0d9uHci5Mjbd-10" value="" style="endArrow=none;html=1;rounded=0;exitX=0.5;exitY=1;exitDx=0;exitDy=0;entryX=0;entryY=0.25;entryDx=0;entryDy=0;edgeStyle=orthogonalEdgeStyle;strokeWidth=4;endFill=0;" parent="1" source="3J-PmPcp0d9uHci5Mjbd-8" target="3J-PmPcp0d9uHci5Mjbd-6" edge="1">
          <mxGeometry width="50" height="50" relative="1" as="geometry">
            <mxPoint x="175.66" y="465" as="sourcePoint" />
            <mxPoint x="250.66" y="415" as="targetPoint" />
          </mxGeometry>
        </mxCell>
        <mxCell id="3J-PmPcp0d9uHci5Mjbd-12" value="" style="endArrow=none;html=1;rounded=0;exitX=0;exitY=0.5;exitDx=0;exitDy=0;strokeWidth=4;startArrow=none;startFill=0;" parent="1" source="c8_pwvJgbb843xL5BC3s-1" target="3J-PmPcp0d9uHci5Mjbd-11" edge="1">
          <mxGeometry width="50" height="50" relative="1" as="geometry">
            <mxPoint x="340.65999999999997" y="75" as="sourcePoint" />
            <mxPoint x="100.66" y="74" as="targetPoint" />
          </mxGeometry>
        </mxCell>
        <mxCell id="3J-PmPcp0d9uHci5Mjbd-11" value="" style="ellipse;whiteSpace=wrap;html=1;fillColor=#000000;" parent="1" vertex="1">
          <mxGeometry x="245.66" y="70" width="10" height="10" as="geometry" />
        </mxCell>
        <mxCell id="3J-PmPcp0d9uHci5Mjbd-13" value="" style="endArrow=none;html=1;rounded=0;entryX=0.5;entryY=1;entryDx=0;entryDy=0;exitX=0.5;exitY=0;exitDx=0;exitDy=0;startArrow=classic;startFill=1;" parent="1" source="3J-PmPcp0d9uHci5Mjbd-16" target="3J-PmPcp0d9uHci5Mjbd-11" edge="1">
          <mxGeometry width="50" height="50" relative="1" as="geometry">
            <mxPoint x="310.65999999999997" y="250" as="sourcePoint" />
            <mxPoint x="360.65999999999997" y="200" as="targetPoint" />
          </mxGeometry>
        </mxCell>
        <mxCell id="3J-PmPcp0d9uHci5Mjbd-14" value="" style="ellipse;whiteSpace=wrap;html=1;fillColor=#000000;" parent="1" vertex="1">
          <mxGeometry x="474.65999999999997" y="70" width="10" height="10" as="geometry" />
        </mxCell>
        <mxCell id="3J-PmPcp0d9uHci5Mjbd-15" value="" style="endArrow=none;html=1;rounded=0;entryX=0.5;entryY=1;entryDx=0;entryDy=0;startArrow=classic;startFill=1;" parent="1" source="c8_pwvJgbb843xL5BC3s-35" target="3J-PmPcp0d9uHci5Mjbd-14" edge="1">
          <mxGeometry width="50" height="50" relative="1" as="geometry">
            <mxPoint x="310.65999999999997" y="180" as="sourcePoint" />
            <mxPoint x="360.65999999999997" y="130" as="targetPoint" />
          </mxGeometry>
        </mxCell>
        <mxCell id="3J-PmPcp0d9uHci5Mjbd-20" value="" style="endArrow=none;html=1;rounded=0;entryX=0.5;entryY=1;entryDx=0;entryDy=0;exitX=0.5;exitY=0;exitDx=0;exitDy=0;startArrow=classic;startFill=1;" parent="1" source="3J-PmPcp0d9uHci5Mjbd-6" target="3J-PmPcp0d9uHci5Mjbd-16" edge="1">
          <mxGeometry width="50" height="50" relative="1" as="geometry">
            <mxPoint x="250.66" y="366" as="sourcePoint" />
            <mxPoint x="250.66" y="55" as="targetPoint" />
          </mxGeometry>
        </mxCell>
        <mxCell id="3J-PmPcp0d9uHci5Mjbd-16" value="&lt;font style=&quot;font-size: 14px;&quot;&gt;&amp;amp;&lt;/font&gt;" style="ellipse;whiteSpace=wrap;html=1;aspect=fixed;strokeWidth=3;" parent="1" vertex="1">
          <mxGeometry x="235.66" y="300" width="30" height="30" as="geometry" />
        </mxCell>
        <mxCell id="3J-PmPcp0d9uHci5Mjbd-22" value="&lt;font style=&quot;font-size: 10px;&quot;&gt;Pseudo dual port RAM (combinatorial read)&lt;/font&gt;" style="text;html=1;align=center;verticalAlign=middle;whiteSpace=wrap;rounded=0;" parent="1" vertex="1">
          <mxGeometry x="183.16" y="502.5" width="135" height="37.5" as="geometry" />
        </mxCell>
        <mxCell id="NDBSkDmzRcyy3iY5H0S5-1" value="signal" style="text;html=1;align=center;verticalAlign=middle;whiteSpace=wrap;rounded=0;" parent="1" vertex="1">
          <mxGeometry x="590.66" y="46" width="60" height="30" as="geometry" />
        </mxCell>
        <mxCell id="NDBSkDmzRcyy3iY5H0S5-2" value="id" style="text;html=1;align=center;verticalAlign=middle;whiteSpace=wrap;rounded=0;" parent="1" vertex="1">
          <mxGeometry x="600.66" y="150" width="60" height="30" as="geometry" />
        </mxCell>
        <mxCell id="NDBSkDmzRcyy3iY5H0S5-3" value="data" style="text;html=1;align=center;verticalAlign=middle;whiteSpace=wrap;rounded=0;" parent="1" vertex="1">
          <mxGeometry x="600.66" y="320" width="60" height="30" as="geometry" />
        </mxCell>
        <mxCell id="NDBSkDmzRcyy3iY5H0S5-4" value="addr" style="text;html=1;align=center;verticalAlign=middle;whiteSpace=wrap;rounded=0;" parent="1" vertex="1">
          <mxGeometry x="590.66" y="540" width="60" height="30" as="geometry" />
        </mxCell>
        <mxCell id="NDBSkDmzRcyy3iY5H0S5-6" value="valid" style="text;html=1;align=center;verticalAlign=middle;whiteSpace=wrap;rounded=0;" parent="1" vertex="1">
          <mxGeometry x="600.66" y="640" width="60" height="30" as="geometry" />
        </mxCell>
        <mxCell id="NDBSkDmzRcyy3iY5H0S5-7" value="" style="endArrow=classic;html=1;rounded=0;endFill=1;exitX=0;exitY=0.5;exitDx=0;exitDy=0;" parent="1" source="R-Bt77Yq40JcBocoS7dt-11" edge="1">
          <mxGeometry width="50" height="50" relative="1" as="geometry">
            <mxPoint x="400.6600000000001" y="735" as="sourcePoint" />
            <mxPoint x="100.66" y="735" as="targetPoint" />
          </mxGeometry>
        </mxCell>
        <mxCell id="NDBSkDmzRcyy3iY5H0S5-8" value="ready" style="text;html=1;align=center;verticalAlign=middle;whiteSpace=wrap;rounded=0;" parent="1" vertex="1">
          <mxGeometry x="600.66" y="710" width="60" height="30" as="geometry" />
        </mxCell>
        <mxCell id="NDBSkDmzRcyy3iY5H0S5-11" value="" style="endArrow=none;html=1;rounded=0;entryX=1;entryY=0.5;entryDx=0;entryDy=0;strokeWidth=4;startArrow=classic;startFill=1;" parent="1" target="3J-PmPcp0d9uHci5Mjbd-14" edge="1">
          <mxGeometry width="50" height="50" relative="1" as="geometry">
            <mxPoint x="660.66" y="75" as="sourcePoint" />
            <mxPoint x="570.66" y="74.5" as="targetPoint" />
          </mxGeometry>
        </mxCell>
        <mxCell id="R-Bt77Yq40JcBocoS7dt-4" value="" style="endArrow=none;html=1;rounded=0;entryX=1;entryY=0.5;entryDx=0;entryDy=0;endFill=0;exitX=0.997;exitY=0.878;exitDx=0;exitDy=0;exitPerimeter=0;" parent="1" source="NDBSkDmzRcyy3iY5H0S5-8" target="R-Bt77Yq40JcBocoS7dt-11" edge="1">
          <mxGeometry width="50" height="50" relative="1" as="geometry">
            <mxPoint x="660.66" y="740" as="sourcePoint" />
            <mxPoint x="410.6600000000001" y="735" as="targetPoint" />
          </mxGeometry>
        </mxCell>
        <mxCell id="R-Bt77Yq40JcBocoS7dt-11" value="" style="ellipse;whiteSpace=wrap;html=1;fillColor=#000000;" parent="1" vertex="1">
          <mxGeometry x="403.15999999999997" y="732.5" width="5" height="5" as="geometry" />
        </mxCell>
        <mxCell id="R-Bt77Yq40JcBocoS7dt-13" value="" style="ellipse;whiteSpace=wrap;html=1;fillColor=#000000;" parent="1" vertex="1">
          <mxGeometry x="403.15999999999997" y="610" width="5" height="5" as="geometry" />
        </mxCell>
        <mxCell id="R-Bt77Yq40JcBocoS7dt-17" value="" style="ellipse;whiteSpace=wrap;html=1;fillColor=#000000;" parent="1" vertex="1">
          <mxGeometry x="403.15999999999997" y="510" width="5" height="5" as="geometry" />
        </mxCell>
        <mxCell id="R-Bt77Yq40JcBocoS7dt-19" value="" style="ellipse;whiteSpace=wrap;html=1;fillColor=#000000;" parent="1" vertex="1">
          <mxGeometry x="403.15999999999997" y="411.25" width="5" height="5" as="geometry" />
        </mxCell>
        <mxCell id="R-Bt77Yq40JcBocoS7dt-21" value="" style="ellipse;whiteSpace=wrap;html=1;fillColor=#000000;" parent="1" vertex="1">
          <mxGeometry x="403.15999999999997" y="220" width="5" height="5" as="geometry" />
        </mxCell>
        <mxCell id="R-Bt77Yq40JcBocoS7dt-23" value="" style="ellipse;whiteSpace=wrap;html=1;fillColor=#000000;" parent="1" vertex="1">
          <mxGeometry x="403.15999999999997" y="120" width="5" height="5" as="geometry" />
        </mxCell>
        <mxCell id="R-Bt77Yq40JcBocoS7dt-25" value="" style="endArrow=none;html=1;rounded=0;exitX=0.5;exitY=0;exitDx=0;exitDy=0;entryX=0.5;entryY=1;entryDx=0;entryDy=0;" parent="1" source="R-Bt77Yq40JcBocoS7dt-11" target="R-Bt77Yq40JcBocoS7dt-13" edge="1">
          <mxGeometry width="50" height="50" relative="1" as="geometry">
            <mxPoint x="408.15999999999997" y="716.25" as="sourcePoint" />
            <mxPoint x="458.15999999999997" y="666.25" as="targetPoint" />
          </mxGeometry>
        </mxCell>
        <mxCell id="R-Bt77Yq40JcBocoS7dt-26" value="" style="endArrow=none;html=1;rounded=0;exitX=0.5;exitY=0;exitDx=0;exitDy=0;entryX=0.5;entryY=1;entryDx=0;entryDy=0;" parent="1" source="R-Bt77Yq40JcBocoS7dt-13" target="R-Bt77Yq40JcBocoS7dt-17" edge="1">
          <mxGeometry width="50" height="50" relative="1" as="geometry">
            <mxPoint x="490.65999999999997" y="550" as="sourcePoint" />
            <mxPoint x="540.66" y="500" as="targetPoint" />
          </mxGeometry>
        </mxCell>
        <mxCell id="R-Bt77Yq40JcBocoS7dt-27" value="" style="endArrow=none;html=1;rounded=0;exitX=0.5;exitY=0;exitDx=0;exitDy=0;entryX=0.5;entryY=1;entryDx=0;entryDy=0;" parent="1" source="R-Bt77Yq40JcBocoS7dt-17" target="R-Bt77Yq40JcBocoS7dt-19" edge="1">
          <mxGeometry width="50" height="50" relative="1" as="geometry">
            <mxPoint x="490.65999999999997" y="550" as="sourcePoint" />
            <mxPoint x="540.66" y="500" as="targetPoint" />
          </mxGeometry>
        </mxCell>
        <mxCell id="R-Bt77Yq40JcBocoS7dt-29" value="" style="endArrow=none;html=1;rounded=0;exitX=0.5;exitY=0;exitDx=0;exitDy=0;entryX=0.5;entryY=1;entryDx=0;entryDy=0;" parent="1" source="R-Bt77Yq40JcBocoS7dt-21" target="R-Bt77Yq40JcBocoS7dt-23" edge="1">
          <mxGeometry width="50" height="50" relative="1" as="geometry">
            <mxPoint x="490.65999999999997" y="160" as="sourcePoint" />
            <mxPoint x="540.66" y="110" as="targetPoint" />
          </mxGeometry>
        </mxCell>
        <mxCell id="R-Bt77Yq40JcBocoS7dt-30" value="" style="endArrow=none;html=1;rounded=0;exitX=0.5;exitY=0;exitDx=0;exitDy=0;" parent="1" source="R-Bt77Yq40JcBocoS7dt-23" edge="1">
          <mxGeometry width="50" height="50" relative="1" as="geometry">
            <mxPoint x="403.15999999999997" y="112.5" as="sourcePoint" />
            <mxPoint x="405.65999999999997" y="20" as="targetPoint" />
          </mxGeometry>
        </mxCell>
        <mxCell id="R-Bt77Yq40JcBocoS7dt-31" value="" style="endArrow=none;html=1;rounded=0;exitX=0.5;exitY=0;exitDx=0;exitDy=0;edgeStyle=orthogonalEdgeStyle;startArrow=none;startFill=0;" parent="1" source="c8_pwvJgbb843xL5BC3s-1" edge="1">
          <mxGeometry width="50" height="50" relative="1" as="geometry">
            <mxPoint x="485.65999999999997" y="90" as="sourcePoint" />
            <mxPoint x="405.65999999999997" y="20" as="targetPoint" />
            <Array as="points">
              <mxPoint x="360.65999999999997" y="20" />
            </Array>
          </mxGeometry>
        </mxCell>
        <mxCell id="R-Bt77Yq40JcBocoS7dt-32" value="" style="endArrow=none;html=1;rounded=0;exitX=0.5;exitY=0;exitDx=0;exitDy=0;entryX=0;entryY=0.5;entryDx=0;entryDy=0;edgeStyle=orthogonalEdgeStyle;startArrow=none;startFill=0;" parent="1" source="c8_pwvJgbb843xL5BC3s-10" target="R-Bt77Yq40JcBocoS7dt-23" edge="1">
          <mxGeometry width="50" height="50" relative="1" as="geometry">
            <mxPoint x="490.65999999999997" y="90" as="sourcePoint" />
            <mxPoint x="540.66" y="40" as="targetPoint" />
          </mxGeometry>
        </mxCell>
        <mxCell id="R-Bt77Yq40JcBocoS7dt-33" value="" style="endArrow=none;html=1;rounded=0;entryX=0;entryY=0.5;entryDx=0;entryDy=0;exitX=0.5;exitY=0;exitDx=0;exitDy=0;edgeStyle=orthogonalEdgeStyle;startArrow=none;startFill=0;" parent="1" source="c8_pwvJgbb843xL5BC3s-20" target="R-Bt77Yq40JcBocoS7dt-21" edge="1">
          <mxGeometry width="50" height="50" relative="1" as="geometry">
            <mxPoint x="490.65999999999997" y="290" as="sourcePoint" />
            <mxPoint x="540.66" y="240" as="targetPoint" />
          </mxGeometry>
        </mxCell>
        <mxCell id="R-Bt77Yq40JcBocoS7dt-34" value="" style="endArrow=none;html=1;rounded=0;entryX=0;entryY=0.5;entryDx=0;entryDy=0;exitX=0.5;exitY=0;exitDx=0;exitDy=0;edgeStyle=orthogonalEdgeStyle;startArrow=none;startFill=0;" parent="1" source="c8_pwvJgbb843xL5BC3s-29" target="R-Bt77Yq40JcBocoS7dt-19" edge="1">
          <mxGeometry width="50" height="50" relative="1" as="geometry">
            <mxPoint x="490.65999999999997" y="430" as="sourcePoint" />
            <mxPoint x="540.66" y="380" as="targetPoint" />
          </mxGeometry>
        </mxCell>
        <mxCell id="R-Bt77Yq40JcBocoS7dt-35" value="" style="endArrow=none;html=1;rounded=0;entryX=0;entryY=0.5;entryDx=0;entryDy=0;exitX=0.5;exitY=0;exitDx=0;exitDy=0;edgeStyle=orthogonalEdgeStyle;startArrow=none;startFill=0;" parent="1" source="c8_pwvJgbb843xL5BC3s-31" target="R-Bt77Yq40JcBocoS7dt-17" edge="1">
          <mxGeometry width="50" height="50" relative="1" as="geometry">
            <mxPoint x="490.65999999999997" y="600" as="sourcePoint" />
            <mxPoint x="540.66" y="550" as="targetPoint" />
          </mxGeometry>
        </mxCell>
        <mxCell id="R-Bt77Yq40JcBocoS7dt-36" value="" style="endArrow=none;html=1;rounded=0;entryX=0;entryY=0.5;entryDx=0;entryDy=0;exitX=0.5;exitY=0;exitDx=0;exitDy=0;edgeStyle=orthogonalEdgeStyle;startArrow=none;startFill=0;" parent="1" source="c8_pwvJgbb843xL5BC3s-33" target="R-Bt77Yq40JcBocoS7dt-13" edge="1">
          <mxGeometry width="50" height="50" relative="1" as="geometry">
            <mxPoint x="490.65999999999997" y="690" as="sourcePoint" />
            <mxPoint x="540.66" y="640" as="targetPoint" />
          </mxGeometry>
        </mxCell>
        <mxCell id="R-Bt77Yq40JcBocoS7dt-37" value="" style="ellipse;whiteSpace=wrap;html=1;fillColor=#000000;" parent="1" vertex="1">
          <mxGeometry x="403.15999999999997" y="337.5" width="5" height="5" as="geometry" />
        </mxCell>
        <mxCell id="R-Bt77Yq40JcBocoS7dt-38" value="" style="endArrow=none;html=1;rounded=0;exitX=0.5;exitY=0;exitDx=0;exitDy=0;entryX=0.5;entryY=1;entryDx=0;entryDy=0;" parent="1" source="R-Bt77Yq40JcBocoS7dt-19" target="R-Bt77Yq40JcBocoS7dt-37" edge="1">
          <mxGeometry width="50" height="50" relative="1" as="geometry">
            <mxPoint x="490.65999999999997" y="350" as="sourcePoint" />
            <mxPoint x="540.66" y="300" as="targetPoint" />
          </mxGeometry>
        </mxCell>
        <mxCell id="R-Bt77Yq40JcBocoS7dt-39" value="" style="endArrow=none;html=1;rounded=0;exitX=0.5;exitY=0;exitDx=0;exitDy=0;entryX=0.5;entryY=1;entryDx=0;entryDy=0;" parent="1" source="R-Bt77Yq40JcBocoS7dt-37" target="R-Bt77Yq40JcBocoS7dt-21" edge="1">
          <mxGeometry width="50" height="50" relative="1" as="geometry">
            <mxPoint x="490.65999999999997" y="350" as="sourcePoint" />
            <mxPoint x="540.66" y="300" as="targetPoint" />
          </mxGeometry>
        </mxCell>
        <mxCell id="R-Bt77Yq40JcBocoS7dt-40" value="" style="endArrow=none;html=1;rounded=0;entryX=0;entryY=0.5;entryDx=0;entryDy=0;exitX=1;exitY=0.5;exitDx=0;exitDy=0;edgeStyle=orthogonalEdgeStyle;startArrow=classicThin;startFill=1;" parent="1" source="3J-PmPcp0d9uHci5Mjbd-16" target="R-Bt77Yq40JcBocoS7dt-37" edge="1">
          <mxGeometry width="50" height="50" relative="1" as="geometry">
            <mxPoint x="350.65999999999997" y="390" as="sourcePoint" />
            <mxPoint x="400.65999999999997" y="340" as="targetPoint" />
            <Array as="points">
              <mxPoint x="320.65999999999997" y="315" />
              <mxPoint x="320.65999999999997" y="340" />
            </Array>
          </mxGeometry>
        </mxCell>
        <mxCell id="R-Bt77Yq40JcBocoS7dt-41" value="0" style="text;html=1;align=center;verticalAlign=middle;whiteSpace=wrap;rounded=0;" parent="1" vertex="1">
          <mxGeometry x="460.65999999999997" y="370.63" width="20" height="25" as="geometry" />
        </mxCell>
        <mxCell id="R-Bt77Yq40JcBocoS7dt-42" value="1" style="text;html=1;align=center;verticalAlign=middle;whiteSpace=wrap;rounded=0;" parent="1" vertex="1">
          <mxGeometry x="460.65999999999997" y="302.5" width="20" height="25" as="geometry" />
        </mxCell>
        <mxCell id="R-Bt77Yq40JcBocoS7dt-43" value="sel" style="text;html=1;align=center;verticalAlign=middle;whiteSpace=wrap;rounded=0;" parent="1" vertex="1">
          <mxGeometry x="460.65999999999997" y="286.25" width="30" height="30" as="geometry" />
        </mxCell>
        <mxCell id="R-Bt77Yq40JcBocoS7dt-44" value="" style="ellipse;whiteSpace=wrap;html=1;fillColor=#000000;" parent="1" vertex="1">
          <mxGeometry x="160.66" y="560" width="10" height="10" as="geometry" />
        </mxCell>
        <mxCell id="R-Bt77Yq40JcBocoS7dt-45" value="" style="endArrow=none;html=1;rounded=0;entryX=0.5;entryY=0;entryDx=0;entryDy=0;strokeWidth=4;exitX=0.5;exitY=1;exitDx=0;exitDy=0;" parent="1" source="3J-PmPcp0d9uHci5Mjbd-2" target="R-Bt77Yq40JcBocoS7dt-44" edge="1">
          <mxGeometry width="50" height="50" relative="1" as="geometry">
            <mxPoint x="140.66" y="560" as="sourcePoint" />
            <mxPoint x="200.66" y="560" as="targetPoint" />
          </mxGeometry>
        </mxCell>
        <mxCell id="R-Bt77Yq40JcBocoS7dt-46" value="addr" style="text;html=1;align=center;verticalAlign=middle;whiteSpace=wrap;rounded=0;" parent="1" vertex="1">
          <mxGeometry x="90.66" y="540" width="60" height="30" as="geometry" />
        </mxCell>
        <mxCell id="R-Bt77Yq40JcBocoS7dt-47" value="data" style="text;html=1;align=center;verticalAlign=middle;whiteSpace=wrap;rounded=0;" parent="1" vertex="1">
          <mxGeometry x="90.66" y="250" width="60" height="30" as="geometry" />
        </mxCell>
        <mxCell id="R-Bt77Yq40JcBocoS7dt-48" value="valid" style="text;html=1;align=center;verticalAlign=middle;whiteSpace=wrap;rounded=0;" parent="1" vertex="1">
          <mxGeometry x="90.66" y="640" width="60" height="30" as="geometry" />
        </mxCell>
        <mxCell id="R-Bt77Yq40JcBocoS7dt-49" value="ready" style="text;html=1;align=center;verticalAlign=middle;whiteSpace=wrap;rounded=0;" parent="1" vertex="1">
          <mxGeometry x="90.66" y="707.5" width="60" height="30" as="geometry" />
        </mxCell>
        <mxCell id="R-Bt77Yq40JcBocoS7dt-50" value="signal" style="text;html=1;align=center;verticalAlign=middle;whiteSpace=wrap;rounded=0;" parent="1" vertex="1">
          <mxGeometry x="90.66" y="46" width="60" height="30" as="geometry" />
        </mxCell>
        <mxCell id="R-Bt77Yq40JcBocoS7dt-51" value="id" style="text;html=1;align=center;verticalAlign=middle;whiteSpace=wrap;rounded=0;" parent="1" vertex="1">
          <mxGeometry x="90.66" y="150" width="60" height="30" as="geometry" />
        </mxCell>
        <mxCell id="R-Bt77Yq40JcBocoS7dt-52" value="en" style="text;html=1;align=center;verticalAlign=middle;whiteSpace=wrap;rounded=0;" parent="1" vertex="1">
          <mxGeometry x="345.65999999999997" y="40" width="30" height="20" as="geometry" />
        </mxCell>
        <mxCell id="R-Bt77Yq40JcBocoS7dt-54" value="en" style="text;html=1;align=center;verticalAlign=middle;whiteSpace=wrap;rounded=0;" parent="1" vertex="1">
          <mxGeometry x="345.65999999999997" y="140" width="30" height="20" as="geometry" />
        </mxCell>
        <mxCell id="R-Bt77Yq40JcBocoS7dt-55" value="en" style="text;html=1;align=center;verticalAlign=middle;whiteSpace=wrap;rounded=0;" parent="1" vertex="1">
          <mxGeometry x="345.65999999999997" y="240" width="30" height="20" as="geometry" />
        </mxCell>
        <mxCell id="R-Bt77Yq40JcBocoS7dt-56" value="en" style="text;html=1;align=center;verticalAlign=middle;whiteSpace=wrap;rounded=0;" parent="1" vertex="1">
          <mxGeometry x="345.65999999999997" y="430" width="30" height="20" as="geometry" />
        </mxCell>
        <mxCell id="R-Bt77Yq40JcBocoS7dt-57" value="en" style="text;html=1;align=center;verticalAlign=middle;whiteSpace=wrap;rounded=0;" parent="1" vertex="1">
          <mxGeometry x="345.65999999999997" y="530" width="30" height="20" as="geometry" />
        </mxCell>
        <mxCell id="R-Bt77Yq40JcBocoS7dt-58" value="en" style="text;html=1;align=center;verticalAlign=middle;whiteSpace=wrap;rounded=0;" parent="1" vertex="1">
          <mxGeometry x="345.65999999999997" y="630" width="30" height="20" as="geometry" />
        </mxCell>
        <mxCell id="EWlrvMmlR7x_ZhXIqtUP-5" value="" style="rounded=0;whiteSpace=wrap;html=1;fillColor=#f5f5f5;strokeColor=#666666;fontColor=#333333;" vertex="1" parent="1">
          <mxGeometry x="20.659999999999997" y="30" width="80" height="730" as="geometry" />
        </mxCell>
        <mxCell id="EWlrvMmlR7x_ZhXIqtUP-7" value="" style="rounded=0;whiteSpace=wrap;html=1;fillColor=#f5f5f5;fontColor=#333333;strokeColor=#666666;" vertex="1" parent="1">
          <mxGeometry x="660.66" y="30" width="60" height="730" as="geometry" />
        </mxCell>
        <mxCell id="EWlrvMmlR7x_ZhXIqtUP-12" value="d" style="text;html=1;align=center;verticalAlign=middle;whiteSpace=wrap;rounded=0;" vertex="1" parent="1">
          <mxGeometry x="339.40999999999997" y="65" width="21.25" height="20" as="geometry" />
        </mxCell>
        <mxCell id="EWlrvMmlR7x_ZhXIqtUP-13" value="q" style="text;html=1;align=center;verticalAlign=middle;whiteSpace=wrap;rounded=0;" vertex="1" parent="1">
          <mxGeometry x="360.65999999999997" y="65" width="21.25" height="20" as="geometry" />
        </mxCell>
        <mxCell id="EWlrvMmlR7x_ZhXIqtUP-14" value="d" style="text;html=1;align=center;verticalAlign=middle;whiteSpace=wrap;rounded=0;" vertex="1" parent="1">
          <mxGeometry x="339.40999999999997" y="165" width="21.25" height="20" as="geometry" />
        </mxCell>
        <mxCell id="EWlrvMmlR7x_ZhXIqtUP-15" value="q" style="text;html=1;align=center;verticalAlign=middle;whiteSpace=wrap;rounded=0;" vertex="1" parent="1">
          <mxGeometry x="360.65999999999997" y="165" width="21.25" height="20" as="geometry" />
        </mxCell>
        <mxCell id="EWlrvMmlR7x_ZhXIqtUP-16" value="d" style="text;html=1;align=center;verticalAlign=middle;whiteSpace=wrap;rounded=0;" vertex="1" parent="1">
          <mxGeometry x="339.40999999999997" y="265" width="21.25" height="20" as="geometry" />
        </mxCell>
        <mxCell id="EWlrvMmlR7x_ZhXIqtUP-17" value="q" style="text;html=1;align=center;verticalAlign=middle;whiteSpace=wrap;rounded=0;" vertex="1" parent="1">
          <mxGeometry x="360.65999999999997" y="265" width="21.25" height="20" as="geometry" />
        </mxCell>
        <mxCell id="EWlrvMmlR7x_ZhXIqtUP-18" value="d" style="text;html=1;align=center;verticalAlign=middle;whiteSpace=wrap;rounded=0;" vertex="1" parent="1">
          <mxGeometry x="339.40999999999997" y="455" width="21.25" height="20" as="geometry" />
        </mxCell>
        <mxCell id="EWlrvMmlR7x_ZhXIqtUP-19" value="q" style="text;html=1;align=center;verticalAlign=middle;whiteSpace=wrap;rounded=0;" vertex="1" parent="1">
          <mxGeometry x="360.65999999999997" y="455" width="21.25" height="20" as="geometry" />
        </mxCell>
        <mxCell id="EWlrvMmlR7x_ZhXIqtUP-20" value="d" style="text;html=1;align=center;verticalAlign=middle;whiteSpace=wrap;rounded=0;" vertex="1" parent="1">
          <mxGeometry x="339.40999999999997" y="555" width="21.25" height="20" as="geometry" />
        </mxCell>
        <mxCell id="EWlrvMmlR7x_ZhXIqtUP-21" value="q" style="text;html=1;align=center;verticalAlign=middle;whiteSpace=wrap;rounded=0;" vertex="1" parent="1">
          <mxGeometry x="360.65999999999997" y="555" width="21.25" height="20" as="geometry" />
        </mxCell>
        <mxCell id="EWlrvMmlR7x_ZhXIqtUP-22" value="d" style="text;html=1;align=center;verticalAlign=middle;whiteSpace=wrap;rounded=0;" vertex="1" parent="1">
          <mxGeometry x="339.40999999999997" y="655" width="21.25" height="20" as="geometry" />
        </mxCell>
        <mxCell id="EWlrvMmlR7x_ZhXIqtUP-23" value="q" style="text;html=1;align=center;verticalAlign=middle;whiteSpace=wrap;rounded=0;" vertex="1" parent="1">
          <mxGeometry x="360.65999999999997" y="655" width="21.25" height="20" as="geometry" />
        </mxCell>
        <mxCell id="EWlrvMmlR7x_ZhXIqtUP-26" value="" style="shape=trapezoid;perimeter=trapezoidPerimeter;whiteSpace=wrap;html=1;fixedSize=1;rotation=90;size=5.75;" vertex="1" parent="1">
          <mxGeometry x="40.66" y="67.87" width="40" height="12.13" as="geometry" />
        </mxCell>
        <mxCell id="EWlrvMmlR7x_ZhXIqtUP-28" value="" style="endArrow=classic;html=1;rounded=0;exitX=0.5;exitY=0;exitDx=0;exitDy=0;entryX=1.006;entryY=0.048;entryDx=0;entryDy=0;entryPerimeter=0;strokeWidth=4;startArrow=none;startFill=0;endFill=1;" edge="1" parent="1" source="EWlrvMmlR7x_ZhXIqtUP-26">
          <mxGeometry width="50" height="50" relative="1" as="geometry">
            <mxPoint x="56.285" y="74.255" as="sourcePoint" />
            <mxPoint x="101.14000000000001" y="73.55999999999995" as="targetPoint" />
          </mxGeometry>
        </mxCell>
        <mxCell id="EWlrvMmlR7x_ZhXIqtUP-29" value="" style="endArrow=none;html=1;rounded=0;entryX=0.75;entryY=1;entryDx=0;entryDy=0;exitX=1;exitY=0.5;exitDx=0;exitDy=0;" edge="1" parent="1" source="EWlrvMmlR7x_ZhXIqtUP-33" target="EWlrvMmlR7x_ZhXIqtUP-26">
          <mxGeometry width="50" height="50" relative="1" as="geometry">
            <mxPoint x="40.52999999999989" y="80.06499999999994" as="sourcePoint" />
            <mxPoint x="80.66" y="85" as="targetPoint" />
          </mxGeometry>
        </mxCell>
        <mxCell id="EWlrvMmlR7x_ZhXIqtUP-30" value="" style="endArrow=none;html=1;rounded=0;exitX=-0.004;exitY=0.324;exitDx=0;exitDy=0;entryX=0.25;entryY=1;entryDx=0;entryDy=0;exitPerimeter=0;" edge="1" parent="1" target="EWlrvMmlR7x_ZhXIqtUP-26">
          <mxGeometry width="50" height="50" relative="1" as="geometry">
            <mxPoint x="20.419999999999987" y="64.43999999999994" as="sourcePoint" />
            <mxPoint x="38.66" y="50" as="targetPoint" />
          </mxGeometry>
        </mxCell>
        <mxCell id="EWlrvMmlR7x_ZhXIqtUP-31" value="" style="endArrow=none;html=1;rounded=0;exitX=0.011;exitY=0.334;exitDx=0;exitDy=0;entryX=0;entryY=0.5;entryDx=0;entryDy=0;exitPerimeter=0;" edge="1" parent="1">
          <mxGeometry width="50" height="50" relative="1" as="geometry">
            <mxPoint x="20.659999999999997" y="85" as="sourcePoint" />
            <mxPoint x="20.659999999999997" y="80.06499999999994" as="targetPoint" />
          </mxGeometry>
        </mxCell>
        <mxCell id="EWlrvMmlR7x_ZhXIqtUP-33" value="" style="rounded=0;whiteSpace=wrap;html=1;" vertex="1" parent="1">
          <mxGeometry x="30.659999999999997" y="76" width="14" height="17" as="geometry" />
        </mxCell>
        <mxCell id="EWlrvMmlR7x_ZhXIqtUP-34" value="" style="endArrow=none;html=1;rounded=0;entryX=0;entryY=0.5;entryDx=0;entryDy=0;exitX=-0.011;exitY=0.657;exitDx=0;exitDy=0;exitPerimeter=0;" edge="1" parent="1" target="EWlrvMmlR7x_ZhXIqtUP-33">
          <mxGeometry width="50" height="50" relative="1" as="geometry">
            <mxPoint x="19.999999999999915" y="84.41999999999996" as="sourcePoint" />
            <mxPoint x="60.66" y="110" as="targetPoint" />
          </mxGeometry>
        </mxCell>
        <mxCell id="EWlrvMmlR7x_ZhXIqtUP-35" value="" style="triangle;whiteSpace=wrap;html=1;rotation=-90;" vertex="1" parent="1">
          <mxGeometry x="32.66" y="83" width="10" height="10" as="geometry" />
        </mxCell>
        <mxCell id="EWlrvMmlR7x_ZhXIqtUP-37" value="" style="shape=trapezoid;perimeter=trapezoidPerimeter;whiteSpace=wrap;html=1;fixedSize=1;rotation=90;size=5.75;" vertex="1" parent="1">
          <mxGeometry x="40.66" y="167.87" width="40" height="12.13" as="geometry" />
        </mxCell>
        <mxCell id="EWlrvMmlR7x_ZhXIqtUP-38" value="" style="endArrow=none;html=1;rounded=0;entryX=0.75;entryY=1;entryDx=0;entryDy=0;exitX=1;exitY=0.5;exitDx=0;exitDy=0;" edge="1" parent="1" source="EWlrvMmlR7x_ZhXIqtUP-41" target="EWlrvMmlR7x_ZhXIqtUP-37">
          <mxGeometry width="50" height="50" relative="1" as="geometry">
            <mxPoint x="40.52999999999989" y="180.06499999999994" as="sourcePoint" />
            <mxPoint x="80.66" y="185" as="targetPoint" />
          </mxGeometry>
        </mxCell>
        <mxCell id="EWlrvMmlR7x_ZhXIqtUP-39" value="" style="endArrow=none;html=1;rounded=0;exitX=-0.004;exitY=0.324;exitDx=0;exitDy=0;entryX=0.25;entryY=1;entryDx=0;entryDy=0;exitPerimeter=0;" edge="1" parent="1" target="EWlrvMmlR7x_ZhXIqtUP-37">
          <mxGeometry width="50" height="50" relative="1" as="geometry">
            <mxPoint x="20.419999999999987" y="164.43999999999994" as="sourcePoint" />
            <mxPoint x="38.66" y="150" as="targetPoint" />
          </mxGeometry>
        </mxCell>
        <mxCell id="EWlrvMmlR7x_ZhXIqtUP-40" value="" style="endArrow=none;html=1;rounded=0;exitX=0.011;exitY=0.334;exitDx=0;exitDy=0;entryX=0;entryY=0.5;entryDx=0;entryDy=0;exitPerimeter=0;" edge="1" parent="1">
          <mxGeometry width="50" height="50" relative="1" as="geometry">
            <mxPoint x="20.659999999999997" y="185" as="sourcePoint" />
            <mxPoint x="20.659999999999997" y="180.06499999999994" as="targetPoint" />
          </mxGeometry>
        </mxCell>
        <mxCell id="EWlrvMmlR7x_ZhXIqtUP-41" value="" style="rounded=0;whiteSpace=wrap;html=1;" vertex="1" parent="1">
          <mxGeometry x="30.659999999999997" y="176" width="14" height="17" as="geometry" />
        </mxCell>
        <mxCell id="EWlrvMmlR7x_ZhXIqtUP-42" value="" style="endArrow=none;html=1;rounded=0;entryX=0;entryY=0.5;entryDx=0;entryDy=0;exitX=-0.011;exitY=0.657;exitDx=0;exitDy=0;exitPerimeter=0;" edge="1" parent="1" target="EWlrvMmlR7x_ZhXIqtUP-41">
          <mxGeometry width="50" height="50" relative="1" as="geometry">
            <mxPoint x="19.999999999999915" y="184.41999999999996" as="sourcePoint" />
            <mxPoint x="60.66" y="210" as="targetPoint" />
          </mxGeometry>
        </mxCell>
        <mxCell id="EWlrvMmlR7x_ZhXIqtUP-43" value="" style="triangle;whiteSpace=wrap;html=1;rotation=-90;" vertex="1" parent="1">
          <mxGeometry x="32.66" y="183" width="10" height="10" as="geometry" />
        </mxCell>
        <mxCell id="EWlrvMmlR7x_ZhXIqtUP-45" value="" style="shape=trapezoid;perimeter=trapezoidPerimeter;whiteSpace=wrap;html=1;fixedSize=1;rotation=90;size=5.75;" vertex="1" parent="1">
          <mxGeometry x="40.66" y="267.87" width="40" height="12.13" as="geometry" />
        </mxCell>
        <mxCell id="EWlrvMmlR7x_ZhXIqtUP-46" value="" style="endArrow=none;html=1;rounded=0;entryX=0.75;entryY=1;entryDx=0;entryDy=0;exitX=1;exitY=0.5;exitDx=0;exitDy=0;" edge="1" parent="1" source="EWlrvMmlR7x_ZhXIqtUP-49" target="EWlrvMmlR7x_ZhXIqtUP-45">
          <mxGeometry width="50" height="50" relative="1" as="geometry">
            <mxPoint x="40.52999999999989" y="280.06499999999994" as="sourcePoint" />
            <mxPoint x="80.66" y="285" as="targetPoint" />
          </mxGeometry>
        </mxCell>
        <mxCell id="EWlrvMmlR7x_ZhXIqtUP-47" value="" style="endArrow=none;html=1;rounded=0;exitX=-0.004;exitY=0.324;exitDx=0;exitDy=0;entryX=0.25;entryY=1;entryDx=0;entryDy=0;exitPerimeter=0;" edge="1" parent="1" target="EWlrvMmlR7x_ZhXIqtUP-45">
          <mxGeometry width="50" height="50" relative="1" as="geometry">
            <mxPoint x="20.419999999999987" y="264.43999999999994" as="sourcePoint" />
            <mxPoint x="38.66" y="250" as="targetPoint" />
          </mxGeometry>
        </mxCell>
        <mxCell id="EWlrvMmlR7x_ZhXIqtUP-48" value="" style="endArrow=none;html=1;rounded=0;exitX=0.011;exitY=0.334;exitDx=0;exitDy=0;entryX=0;entryY=0.5;entryDx=0;entryDy=0;exitPerimeter=0;" edge="1" parent="1">
          <mxGeometry width="50" height="50" relative="1" as="geometry">
            <mxPoint x="20.659999999999997" y="285" as="sourcePoint" />
            <mxPoint x="20.659999999999997" y="280.06499999999994" as="targetPoint" />
          </mxGeometry>
        </mxCell>
        <mxCell id="EWlrvMmlR7x_ZhXIqtUP-49" value="" style="rounded=0;whiteSpace=wrap;html=1;" vertex="1" parent="1">
          <mxGeometry x="30.659999999999997" y="276" width="14" height="17" as="geometry" />
        </mxCell>
        <mxCell id="EWlrvMmlR7x_ZhXIqtUP-50" value="" style="endArrow=none;html=1;rounded=0;entryX=0;entryY=0.5;entryDx=0;entryDy=0;exitX=-0.011;exitY=0.657;exitDx=0;exitDy=0;exitPerimeter=0;" edge="1" parent="1" target="EWlrvMmlR7x_ZhXIqtUP-49">
          <mxGeometry width="50" height="50" relative="1" as="geometry">
            <mxPoint x="19.999999999999915" y="284.41999999999996" as="sourcePoint" />
            <mxPoint x="60.66" y="310" as="targetPoint" />
          </mxGeometry>
        </mxCell>
        <mxCell id="EWlrvMmlR7x_ZhXIqtUP-51" value="" style="triangle;whiteSpace=wrap;html=1;rotation=-90;" vertex="1" parent="1">
          <mxGeometry x="32.66" y="283" width="10" height="10" as="geometry" />
        </mxCell>
        <mxCell id="EWlrvMmlR7x_ZhXIqtUP-53" value="" style="shape=trapezoid;perimeter=trapezoidPerimeter;whiteSpace=wrap;html=1;fixedSize=1;rotation=90;size=5.75;" vertex="1" parent="1">
          <mxGeometry x="40.66" y="557.87" width="40" height="12.13" as="geometry" />
        </mxCell>
        <mxCell id="EWlrvMmlR7x_ZhXIqtUP-54" value="" style="endArrow=none;html=1;rounded=0;entryX=0.75;entryY=1;entryDx=0;entryDy=0;exitX=1;exitY=0.5;exitDx=0;exitDy=0;" edge="1" parent="1" source="EWlrvMmlR7x_ZhXIqtUP-57" target="EWlrvMmlR7x_ZhXIqtUP-53">
          <mxGeometry width="50" height="50" relative="1" as="geometry">
            <mxPoint x="40.52999999999989" y="570.0649999999999" as="sourcePoint" />
            <mxPoint x="80.66" y="575" as="targetPoint" />
          </mxGeometry>
        </mxCell>
        <mxCell id="EWlrvMmlR7x_ZhXIqtUP-55" value="" style="endArrow=none;html=1;rounded=0;exitX=-0.004;exitY=0.324;exitDx=0;exitDy=0;entryX=0.25;entryY=1;entryDx=0;entryDy=0;exitPerimeter=0;" edge="1" parent="1" target="EWlrvMmlR7x_ZhXIqtUP-53">
          <mxGeometry width="50" height="50" relative="1" as="geometry">
            <mxPoint x="20.419999999999987" y="554.44" as="sourcePoint" />
            <mxPoint x="38.66" y="540" as="targetPoint" />
          </mxGeometry>
        </mxCell>
        <mxCell id="EWlrvMmlR7x_ZhXIqtUP-56" value="" style="endArrow=none;html=1;rounded=0;exitX=0.011;exitY=0.334;exitDx=0;exitDy=0;entryX=0;entryY=0.5;entryDx=0;entryDy=0;exitPerimeter=0;" edge="1" parent="1">
          <mxGeometry width="50" height="50" relative="1" as="geometry">
            <mxPoint x="20.659999999999997" y="575" as="sourcePoint" />
            <mxPoint x="20.659999999999997" y="570.0649999999999" as="targetPoint" />
          </mxGeometry>
        </mxCell>
        <mxCell id="EWlrvMmlR7x_ZhXIqtUP-57" value="" style="rounded=0;whiteSpace=wrap;html=1;" vertex="1" parent="1">
          <mxGeometry x="30.659999999999997" y="566" width="14" height="17" as="geometry" />
        </mxCell>
        <mxCell id="EWlrvMmlR7x_ZhXIqtUP-58" value="" style="endArrow=none;html=1;rounded=0;entryX=0;entryY=0.5;entryDx=0;entryDy=0;exitX=-0.011;exitY=0.657;exitDx=0;exitDy=0;exitPerimeter=0;" edge="1" parent="1" target="EWlrvMmlR7x_ZhXIqtUP-57">
          <mxGeometry width="50" height="50" relative="1" as="geometry">
            <mxPoint x="19.999999999999915" y="574.4199999999998" as="sourcePoint" />
            <mxPoint x="60.66" y="600" as="targetPoint" />
          </mxGeometry>
        </mxCell>
        <mxCell id="EWlrvMmlR7x_ZhXIqtUP-59" value="" style="triangle;whiteSpace=wrap;html=1;rotation=-90;" vertex="1" parent="1">
          <mxGeometry x="32.66" y="573" width="10" height="10" as="geometry" />
        </mxCell>
        <mxCell id="EWlrvMmlR7x_ZhXIqtUP-61" value="" style="shape=trapezoid;perimeter=trapezoidPerimeter;whiteSpace=wrap;html=1;fixedSize=1;rotation=90;size=5.75;" vertex="1" parent="1">
          <mxGeometry x="40.66" y="657.87" width="40" height="12.13" as="geometry" />
        </mxCell>
        <mxCell id="EWlrvMmlR7x_ZhXIqtUP-62" value="" style="endArrow=none;html=1;rounded=0;entryX=0.75;entryY=1;entryDx=0;entryDy=0;exitX=1;exitY=0.5;exitDx=0;exitDy=0;" edge="1" parent="1" source="EWlrvMmlR7x_ZhXIqtUP-65" target="EWlrvMmlR7x_ZhXIqtUP-61">
          <mxGeometry width="50" height="50" relative="1" as="geometry">
            <mxPoint x="40.52999999999989" y="670.0649999999999" as="sourcePoint" />
            <mxPoint x="80.66" y="675" as="targetPoint" />
          </mxGeometry>
        </mxCell>
        <mxCell id="EWlrvMmlR7x_ZhXIqtUP-63" value="" style="endArrow=none;html=1;rounded=0;exitX=-0.004;exitY=0.324;exitDx=0;exitDy=0;entryX=0.25;entryY=1;entryDx=0;entryDy=0;exitPerimeter=0;" edge="1" parent="1" target="EWlrvMmlR7x_ZhXIqtUP-61">
          <mxGeometry width="50" height="50" relative="1" as="geometry">
            <mxPoint x="20.419999999999987" y="654.44" as="sourcePoint" />
            <mxPoint x="38.66" y="640" as="targetPoint" />
          </mxGeometry>
        </mxCell>
        <mxCell id="EWlrvMmlR7x_ZhXIqtUP-64" value="" style="endArrow=none;html=1;rounded=0;exitX=0.011;exitY=0.334;exitDx=0;exitDy=0;entryX=0;entryY=0.5;entryDx=0;entryDy=0;exitPerimeter=0;" edge="1" parent="1">
          <mxGeometry width="50" height="50" relative="1" as="geometry">
            <mxPoint x="20.659999999999997" y="675" as="sourcePoint" />
            <mxPoint x="20.659999999999997" y="670.0649999999999" as="targetPoint" />
          </mxGeometry>
        </mxCell>
        <mxCell id="EWlrvMmlR7x_ZhXIqtUP-65" value="" style="rounded=0;whiteSpace=wrap;html=1;" vertex="1" parent="1">
          <mxGeometry x="30.659999999999997" y="666" width="14" height="17" as="geometry" />
        </mxCell>
        <mxCell id="EWlrvMmlR7x_ZhXIqtUP-66" value="" style="endArrow=none;html=1;rounded=0;entryX=0;entryY=0.5;entryDx=0;entryDy=0;exitX=-0.011;exitY=0.657;exitDx=0;exitDy=0;exitPerimeter=0;" edge="1" parent="1" target="EWlrvMmlR7x_ZhXIqtUP-65">
          <mxGeometry width="50" height="50" relative="1" as="geometry">
            <mxPoint x="19.999999999999915" y="674.4200000000001" as="sourcePoint" />
            <mxPoint x="60.66" y="700" as="targetPoint" />
          </mxGeometry>
        </mxCell>
        <mxCell id="EWlrvMmlR7x_ZhXIqtUP-67" value="" style="triangle;whiteSpace=wrap;html=1;rotation=-90;" vertex="1" parent="1">
          <mxGeometry x="32.66" y="673" width="10" height="10" as="geometry" />
        </mxCell>
        <mxCell id="EWlrvMmlR7x_ZhXIqtUP-69" value="" style="rounded=0;whiteSpace=wrap;html=1;" vertex="1" parent="1">
          <mxGeometry x="20.659999999999997" y="726.5" width="14" height="17" as="geometry" />
        </mxCell>
        <mxCell id="EWlrvMmlR7x_ZhXIqtUP-71" value="" style="triangle;whiteSpace=wrap;html=1;rotation=-90;" vertex="1" parent="1">
          <mxGeometry x="22.659999999999997" y="733.5" width="10" height="10" as="geometry" />
        </mxCell>
        <mxCell id="EWlrvMmlR7x_ZhXIqtUP-72" value="" style="endArrow=classic;html=1;rounded=0;exitX=0.5;exitY=0;exitDx=0;exitDy=0;entryX=1.006;entryY=0.048;entryDx=0;entryDy=0;entryPerimeter=0;strokeWidth=4;endFill=1;" edge="1" parent="1">
          <mxGeometry width="50" height="50" relative="1" as="geometry">
            <mxPoint x="66.18" y="175.15000000000003" as="sourcePoint" />
            <mxPoint x="100.66000000000003" y="174.70999999999998" as="targetPoint" />
          </mxGeometry>
        </mxCell>
        <mxCell id="EWlrvMmlR7x_ZhXIqtUP-73" value="" style="endArrow=classic;html=1;rounded=0;exitX=0.5;exitY=0;exitDx=0;exitDy=0;entryX=1.006;entryY=0.048;entryDx=0;entryDy=0;entryPerimeter=0;strokeWidth=4;endFill=1;" edge="1" parent="1">
          <mxGeometry width="50" height="50" relative="1" as="geometry">
            <mxPoint x="66.18" y="275.15000000000003" as="sourcePoint" />
            <mxPoint x="100.66000000000003" y="274.71" as="targetPoint" />
          </mxGeometry>
        </mxCell>
        <mxCell id="EWlrvMmlR7x_ZhXIqtUP-74" value="" style="endArrow=classic;html=1;rounded=0;exitX=0.5;exitY=0;exitDx=0;exitDy=0;entryX=1.006;entryY=0.048;entryDx=0;entryDy=0;entryPerimeter=0;strokeWidth=4;endFill=1;" edge="1" parent="1">
          <mxGeometry width="50" height="50" relative="1" as="geometry">
            <mxPoint x="66.17999999999998" y="565.1500000000001" as="sourcePoint" />
            <mxPoint x="100.66" y="564.71" as="targetPoint" />
          </mxGeometry>
        </mxCell>
        <mxCell id="EWlrvMmlR7x_ZhXIqtUP-75" value="" style="endArrow=classic;html=1;rounded=0;exitX=0.5;exitY=0;exitDx=0;exitDy=0;entryX=1.006;entryY=0.048;entryDx=0;entryDy=0;entryPerimeter=0;strokeWidth=1;endFill=1;" edge="1" parent="1">
          <mxGeometry width="50" height="50" relative="1" as="geometry">
            <mxPoint x="66.18" y="665.1500000000001" as="sourcePoint" />
            <mxPoint x="100.66000000000003" y="664.71" as="targetPoint" />
          </mxGeometry>
        </mxCell>
        <mxCell id="EWlrvMmlR7x_ZhXIqtUP-76" value="" style="endArrow=none;html=1;rounded=0;exitX=1;exitY=0.5;exitDx=0;exitDy=0;entryX=1.006;entryY=0.048;entryDx=0;entryDy=0;entryPerimeter=0;strokeWidth=1;" edge="1" parent="1" source="EWlrvMmlR7x_ZhXIqtUP-69">
          <mxGeometry width="50" height="50" relative="1" as="geometry">
            <mxPoint x="66.18" y="735.1500000000001" as="sourcePoint" />
            <mxPoint x="100.66000000000003" y="734.71" as="targetPoint" />
          </mxGeometry>
        </mxCell>
        <mxCell id="EWlrvMmlR7x_ZhXIqtUP-77" value="Skid-buffer&lt;div&gt;(optional)&lt;/div&gt;" style="text;html=1;align=center;verticalAlign=middle;whiteSpace=wrap;rounded=0;" vertex="1" parent="1">
          <mxGeometry x="24.159999999999997" y="372.25" width="73" height="44" as="geometry" />
        </mxCell>
        <mxCell id="EWlrvMmlR7x_ZhXIqtUP-78" value="" style="rounded=0;whiteSpace=wrap;html=1;" vertex="1" parent="1">
          <mxGeometry x="706.66" y="656.5" width="14" height="17" as="geometry" />
        </mxCell>
        <mxCell id="EWlrvMmlR7x_ZhXIqtUP-79" value="" style="triangle;whiteSpace=wrap;html=1;rotation=-90;" vertex="1" parent="1">
          <mxGeometry x="708.66" y="663.5" width="10" height="10" as="geometry" />
        </mxCell>
        <mxCell id="EWlrvMmlR7x_ZhXIqtUP-80" value="Reg-slice&lt;div&gt;(optional)&lt;/div&gt;" style="text;html=1;align=center;verticalAlign=middle;whiteSpace=wrap;rounded=0;" vertex="1" parent="1">
          <mxGeometry x="657.66" y="375" width="65" height="40" as="geometry" />
        </mxCell>
        <mxCell id="EWlrvMmlR7x_ZhXIqtUP-81" value="" style="rounded=0;whiteSpace=wrap;html=1;" vertex="1" parent="1">
          <mxGeometry x="706.66" y="556.5" width="14" height="17" as="geometry" />
        </mxCell>
        <mxCell id="EWlrvMmlR7x_ZhXIqtUP-82" value="" style="triangle;whiteSpace=wrap;html=1;rotation=-90;" vertex="1" parent="1">
          <mxGeometry x="708.66" y="563.5" width="10" height="10" as="geometry" />
        </mxCell>
        <mxCell id="EWlrvMmlR7x_ZhXIqtUP-83" value="" style="rounded=0;whiteSpace=wrap;html=1;" vertex="1" parent="1">
          <mxGeometry x="706.66" y="342.13" width="14" height="17" as="geometry" />
        </mxCell>
        <mxCell id="EWlrvMmlR7x_ZhXIqtUP-84" value="" style="triangle;whiteSpace=wrap;html=1;rotation=-90;" vertex="1" parent="1">
          <mxGeometry x="708.66" y="349.13" width="10" height="10" as="geometry" />
        </mxCell>
        <mxCell id="EWlrvMmlR7x_ZhXIqtUP-85" value="" style="rounded=0;whiteSpace=wrap;html=1;" vertex="1" parent="1">
          <mxGeometry x="706.66" y="166.5" width="14" height="17" as="geometry" />
        </mxCell>
        <mxCell id="EWlrvMmlR7x_ZhXIqtUP-86" value="" style="triangle;whiteSpace=wrap;html=1;rotation=-90;" vertex="1" parent="1">
          <mxGeometry x="708.66" y="173.5" width="10" height="10" as="geometry" />
        </mxCell>
        <mxCell id="EWlrvMmlR7x_ZhXIqtUP-87" value="" style="rounded=0;whiteSpace=wrap;html=1;" vertex="1" parent="1">
          <mxGeometry x="706.66" y="66.5" width="14" height="17" as="geometry" />
        </mxCell>
        <mxCell id="EWlrvMmlR7x_ZhXIqtUP-88" value="" style="triangle;whiteSpace=wrap;html=1;rotation=-90;" vertex="1" parent="1">
          <mxGeometry x="708.66" y="73.5" width="10" height="10" as="geometry" />
        </mxCell>
        <mxCell id="EWlrvMmlR7x_ZhXIqtUP-89" value="" style="endArrow=classic;html=1;rounded=0;entryX=0;entryY=0.5;entryDx=0;entryDy=0;strokeWidth=4;startArrow=none;startFill=0;endFill=1;" edge="1" parent="1" target="EWlrvMmlR7x_ZhXIqtUP-87">
          <mxGeometry width="50" height="50" relative="1" as="geometry">
            <mxPoint x="660.66" y="75" as="sourcePoint" />
            <mxPoint x="637.9" y="120" as="targetPoint" />
          </mxGeometry>
        </mxCell>
        <mxCell id="EWlrvMmlR7x_ZhXIqtUP-91" value="" style="endArrow=classic;html=1;rounded=0;entryX=0;entryY=0.5;entryDx=0;entryDy=0;strokeWidth=4;startArrow=none;startFill=0;endFill=1;" edge="1" parent="1" target="EWlrvMmlR7x_ZhXIqtUP-85">
          <mxGeometry width="50" height="50" relative="1" as="geometry">
            <mxPoint x="660.66" y="175.31" as="sourcePoint" />
            <mxPoint x="706.66" y="175.31" as="targetPoint" />
          </mxGeometry>
        </mxCell>
        <mxCell id="EWlrvMmlR7x_ZhXIqtUP-92" value="" style="endArrow=classic;html=1;rounded=0;entryX=0;entryY=0.5;entryDx=0;entryDy=0;strokeWidth=4;startArrow=none;startFill=0;endFill=1;" edge="1" parent="1" target="EWlrvMmlR7x_ZhXIqtUP-83">
          <mxGeometry width="50" height="50" relative="1" as="geometry">
            <mxPoint x="660.66" y="350.6" as="sourcePoint" />
            <mxPoint x="706.66" y="350.28999999999996" as="targetPoint" />
          </mxGeometry>
        </mxCell>
        <mxCell id="EWlrvMmlR7x_ZhXIqtUP-93" value="" style="endArrow=classic;html=1;rounded=0;entryX=0;entryY=0.5;entryDx=0;entryDy=0;strokeWidth=4;startArrow=none;startFill=0;endFill=1;" edge="1" parent="1" target="EWlrvMmlR7x_ZhXIqtUP-81">
          <mxGeometry width="50" height="50" relative="1" as="geometry">
            <mxPoint x="660.66" y="564.9699999999999" as="sourcePoint" />
            <mxPoint x="706.66" y="564.66" as="targetPoint" />
          </mxGeometry>
        </mxCell>
        <mxCell id="EWlrvMmlR7x_ZhXIqtUP-94" value="" style="endArrow=classic;html=1;rounded=0;entryX=0;entryY=0.5;entryDx=0;entryDy=0;strokeWidth=4;startArrow=none;startFill=0;endFill=1;" edge="1" parent="1" target="EWlrvMmlR7x_ZhXIqtUP-78">
          <mxGeometry width="50" height="50" relative="1" as="geometry">
            <mxPoint x="660.66" y="665.31" as="sourcePoint" />
            <mxPoint x="706.66" y="665.3400000000001" as="targetPoint" />
          </mxGeometry>
        </mxCell>
        <mxCell id="EWlrvMmlR7x_ZhXIqtUP-95" value="" style="endArrow=none;html=1;rounded=0;exitX=0.02;exitY=0.968;exitDx=0;exitDy=0;strokeWidth=1;exitPerimeter=0;startArrow=classic;startFill=1;" edge="1" parent="1" source="EWlrvMmlR7x_ZhXIqtUP-7">
          <mxGeometry width="50" height="50" relative="1" as="geometry">
            <mxPoint x="660.66" y="734.9499999999999" as="sourcePoint" />
            <mxPoint x="720.66" y="737" as="targetPoint" />
          </mxGeometry>
        </mxCell>
      </root>
    </mxGraphModel>
  </diagram>
</mxfile>
